<svg width="161" height="118" viewBox="0 0 161 118" fill="none" xmlns="http://www.w3.org/2000/svg">
<path d="M59.2229 109.875L101.298 109.875C104.387 109.875 107.023 112.107 107.537 115.152L107.585 115.419C107.711 116.175 107.131 116.86 106.365 116.86L54.1594 116.86C53.3933 116.86 52.8086 116.17 52.9396 115.419L52.9883 115.152C53.5024 112.107 56.1383 109.875 59.2279 109.875L59.2229 109.875Z" fill="#78B0DE" stroke="#3E43BB" stroke-width="0.378009" stroke-linecap="round" stroke-linejoin="round"/>
<rect x="0.189004" y="0.189004" width="160.402" height="101.432" rx="7.87518" fill="#78B0DE" stroke="#3E43BB" stroke-width="0.378009"/>
<rect x="4.28411" y="3.78008" width="152.212" height="94.2502" rx="5.79613" fill="white" stroke="#3E43BB" stroke-width="0.504012"/>
<rect x="74.3417" y="102.062" width="10.0802" height="7.56018" fill="#7871FF" stroke="#3E43BB" stroke-width="0.504012"/>
<path d="M13.4263 7.30811H97.4565C100.264 7.30827 102.566 9.73517 102.566 12.7622V88.0405C102.566 91.0674 100.264 93.4945 97.4565 93.4946H13.4263C10.6188 93.4946 8.31609 91.0675 8.31592 88.0405V12.7622C8.31592 9.73507 10.6187 7.30811 13.4263 7.30811Z" fill="#78B0DE" stroke="#3E43BB" stroke-width="0.504012"/>
<path d="M113.242 53.6772H148.34C151.165 53.6775 153.472 56.0586 153.472 59.0161V89.1636C153.472 92.121 151.165 94.5022 148.34 94.5024H113.242C110.417 94.5023 108.11 92.121 108.11 89.1636V59.0161C108.11 56.0586 110.417 53.6774 113.242 53.6772Z" fill="#78B0DE" stroke="#3E43BB" stroke-width="0.504012"/>
<path d="M115.959 69.7602H117.808C118.457 69.7603 118.982 70.2865 118.982 70.935V85.7924C118.982 86.4409 118.457 86.9671 117.808 86.9672H115.959C115.31 86.9672 114.784 86.441 114.784 85.7924V70.935C114.784 70.2864 115.31 69.7602 115.959 69.7602Z" fill="#3749E9" stroke="#3E43BB" stroke-width="0.504012"/>
<path d="M144.017 66.8168H145.866C146.515 66.817 147.04 67.3431 147.04 67.9916V85.7934C147.04 86.4416 146.515 86.967 145.866 86.9672H144.017C143.368 86.9672 142.842 86.4417 142.842 85.7934V67.9916C142.842 67.343 143.368 66.8168 144.017 66.8168Z" fill="#3749E9" stroke="#3E43BB" stroke-width="0.504012"/>
<path d="M125.656 73.3438H127.505C128.154 73.3439 128.679 73.8701 128.679 74.5186V85.793C128.679 86.4414 128.154 86.9666 127.505 86.9668H125.656C125.007 86.9668 124.481 86.4415 124.481 85.793V74.5186C124.481 73.87 125.007 73.3438 125.656 73.3438Z" fill="#3749E9" stroke="#3E43BB" stroke-width="0.504012"/>
<path d="M135.05 60.8342H136.9C137.548 60.8343 138.074 61.3605 138.074 62.009V85.7932C138.074 86.4415 137.548 86.9668 136.9 86.967H135.05C134.402 86.967 133.876 86.4416 133.876 85.7932V62.009C133.876 61.3604 134.402 60.8342 135.05 60.8342Z" fill="#3749E9" stroke="#3E43BB" stroke-width="0.504012"/>
<path d="M8.06396 88.7061V56.3401C8.06396 56.3401 16.3644 43.9533 24.6522 42.7836C32.3418 41.6982 35.5081 50.4068 43.2512 49.8129C52.5916 49.0965 53.5236 36.8239 62.8555 36.0053C70.6495 35.3216 73.901 43.3306 81.7058 42.7836C91.8131 42.0752 102.818 27.7207 102.818 27.7207V88.7061C102.818 91.4897 100.562 93.7462 97.7781 93.7462H13.1041C10.3205 93.7462 8.06396 91.4897 8.06396 88.7061Z" fill="url(#paint0_linear_640_1363)" stroke="#3E43BB" stroke-width="0.378009" stroke-linecap="round"/>
<path d="M113.242 7.30811H148.34C151.17 7.30831 153.472 9.64057 153.472 12.5259V43.9233C153.472 46.8087 151.17 49.1409 148.34 49.1411H113.242C110.412 49.141 108.11 46.8087 108.11 43.9233V12.5259C108.11 9.64051 110.412 7.30823 113.242 7.30811Z" fill="#78B0DE" stroke="#3E43BB" stroke-width="0.504012"/>
<path d="M128.745 30.0746H128.891L128.767 30.1771L128.771 30.1869L128.925 30.1497L128.838 30.264L139.567 38.5101C137.09 41.6138 133.339 43.6018 128.992 43.6019C124.554 43.6019 120.615 41.4701 118.145 38.1693C116.454 35.9134 115.454 33.108 115.454 30.0697C115.454 26.8437 116.584 23.8892 118.464 21.5599C118.47 21.5536 118.478 21.5457 118.485 21.5365C118.486 21.5356 118.488 21.5352 118.488 21.5345H118.489V21.5335H118.49L118.499 21.5247L118.507 21.515C120.942 18.5557 124.632 16.611 128.745 16.5345V30.0746Z" fill="#3749E9" stroke="#3E43BB" stroke-width="0.504012"/>
<path d="M131.406 13.5004C139.578 13.6349 146.159 20.2986 146.159 28.5023C146.159 31.8518 145.056 34.9402 143.2 37.4388L131.406 28.3773V13.5004Z" fill="#738DFF" stroke="#3E43BB" stroke-width="0.504012"/>
<path d="M16.4531 68.7976H41.0039C42.1651 68.7976 43.0925 69.7075 43.0928 70.8132C43.0928 71.9192 42.1652 72.8298 41.0039 72.8298H16.4531C15.2919 72.8297 14.3643 71.9191 14.3643 70.8132C14.3645 69.7076 15.2921 68.7977 16.4531 68.7976Z" fill="#738DFF" stroke="#3E43BB" stroke-width="0.504012"/>
<path d="M15.4229 77.8698H64.7656C65.3501 77.8698 65.8242 78.3438 65.8242 78.9283V79.2203C65.8242 79.8048 65.3501 80.2789 64.7656 80.2789H15.4229C14.8383 80.2789 14.3643 79.8049 14.3643 79.2203V78.9283C14.3643 78.3438 14.8383 77.8698 15.4229 77.8698Z" fill="#7871FF" stroke="#3E43BB" stroke-width="0.504012"/>
<path d="M15.4229 83.918H39.5645C40.149 83.918 40.623 84.392 40.623 84.9766V85.2686C40.623 85.8531 40.149 86.3271 39.5645 86.3271H15.4229C14.8383 86.3271 14.3643 85.8531 14.3643 85.2686V84.9766C14.3643 84.392 14.8383 83.918 15.4229 83.918Z" fill="#7871FF" stroke="#3E43BB" stroke-width="0.504012"/>
<defs>
<linearGradient id="paint0_linear_640_1363" x1="55.4411" y1="27.7207" x2="55.4411" y2="93.7462" gradientUnits="userSpaceOnUse">
<stop stop-color="#212FE6"/>
<stop offset="1" stop-color="#0CC79F" stop-opacity="0"/>
</linearGradient>
</defs>
</svg>
